<svg version="1.2" xmlns="http://www.w3.org/2000/svg" viewBox="0 0 20 20" width="20" height="20">
	<style>
		.s0 { fill: #274acc } 
	</style>
	<path fill-rule="evenodd" class="s0" d="m16.25 8.13c0 1.9-0.66 3.65-1.76 5.04l4.3 4.29 0.66 0.66-1.32 1.33-0.67-0.66-4.29-4.3c-1.39 1.1-3.14 1.76-5.04 1.76-4.49 0-8.13-3.64-8.13-8.13 0-4.48 3.64-8.12 8.13-8.12 4.48 0 8.12 3.64 8.12 8.12zm-8.12 6.25c3.45 0 6.25-2.79 6.25-6.25 0-3.45-2.8-6.25-6.25-6.25-3.46 0-6.25 2.8-6.25 6.25 0 3.46 2.79 6.25 6.25 6.25z"/>
</svg>